<svg xmlns="http://www.w3.org/2000/svg" height="24" width="24" viewBox="0 0 24 24"><title>table slide</title><g fill="#fef0d3" class="nc-icon-wrapper"><rect x="10" y="2" width="14" height="4" rx="1" ry="1" fill="#f1af4d"></rect><rect x="10" y="10" width="14" height="4" rx="1" ry="1" fill="#f1af4d"></rect><rect x="10" y="18" width="14" height="4" rx="1" ry="1" fill="#f1af4d"></rect><path data-color="color-2" d="M6.383,6.076c-.375-.157-.804-.07-1.09,.217L.293,11.293c-.391,.391-.391,1.023,0,1.414l5,5c.191,.191,.447,.293,.707,.293,.129,0,.259-.024,.383-.076,.374-.154,.617-.52,.617-.924V7c0-.404-.244-.77-.617-.924Z"></path></g></svg>